<?xml version="1.0" encoding="UTF-8"?>
<svg xmlns="http://www.w3.org/2000/svg" xmlns:xlink="http://www.w3.org/1999/xlink" width="27px" height="27px" viewBox="0 0 30 30" version="1.1">
<defs>
<filter id="alpha" filterUnits="objectBoundingBox" x="0%" y="0%" width="100%" height="100%">
  <feColorMatrix type="matrix" in="SourceGraphic" values="0 0 0 0 1 0 0 0 0 1 0 0 0 0 1 0 0 0 1 0"/>
</filter>
<mask id="mask0">
  <g filter="url(#alpha)">
<rect x="0" y="0" width="30" height="30" style="fill:rgb(0%,0%,0%);fill-opacity:0.0509804;stroke:none;"/>
  </g>
</mask>
<clipPath id="clip1">
  <rect x="0" y="0" width="30" height="30"/>
</clipPath>
<g id="surface5" clip-path="url(#clip1)">
<path style=" stroke:none;fill-rule:nonzero;fill:rgb(0%,0%,0%);fill-opacity:1;" d="M 17.5 20.417969 L 17.5 16.207031 C 17.5 15.503906 17.160156 15.085938 16.585938 15.085938 C 16.246094 15.085938 15.996094 15.277344 15.84375 15.652344 C 15.839844 15.679688 15.828125 15.789062 15.832031 16.117188 L 15.832031 20.417969 L 12.917969 20.417969 L 12.917969 12.5 L 15.832031 12.5 L 15.832031 12.941406 C 16.257812 12.648438 16.78125 12.5 17.390625 12.5 C 19.285156 12.5 20.417969 13.789062 20.417969 15.949219 L 20.417969 20.417969 Z M 9.582031 20.417969 L 9.582031 12.5 L 11.023438 12.5 C 10.1875 12.5 9.582031 11.886719 9.582031 11.042969 C 9.582031 10.195312 10.199219 9.582031 11.046875 9.582031 C 11.886719 9.582031 12.484375 10.179688 12.5 11.03125 C 12.5 11.882812 11.882812 12.5 11.035156 12.5 L 12.5 12.5 L 12.5 20.417969 Z M 9.582031 20.417969 "/>
</g>
<mask id="mask1">
  <g filter="url(#alpha)">
<rect x="0" y="0" width="30" height="30" style="fill:rgb(0%,0%,0%);fill-opacity:0.0705882;stroke:none;"/>
  </g>
</mask>
<clipPath id="clip2">
  <rect x="0" y="0" width="30" height="30"/>
</clipPath>
<g id="surface8" clip-path="url(#clip2)">
<path style=" stroke:none;fill-rule:nonzero;fill:rgb(0%,0%,0%);fill-opacity:1;" d="M 17.707031 20.207031 L 17.707031 16.207031 C 17.707031 15.386719 17.277344 14.875 16.585938 14.875 C 16.046875 14.875 15.78125 15.257812 15.652344 15.574219 C 15.617188 15.65625 15.621094 15.988281 15.625 16.128906 L 15.625 20.207031 L 13.125 20.207031 L 13.125 12.707031 L 15.625 12.707031 L 15.625 13.390625 C 15.957031 13.046875 16.488281 12.707031 17.390625 12.707031 C 19.15625 12.707031 20.207031 13.917969 20.207031 15.949219 L 20.207031 20.207031 Z M 9.792969 20.207031 L 9.792969 12.707031 L 12.292969 12.707031 L 12.292969 20.207031 Z M 11.023438 12.292969 C 10.308594 12.292969 9.792969 11.765625 9.792969 11.042969 C 9.792969 10.316406 10.320312 9.792969 11.046875 9.792969 C 11.765625 9.792969 12.277344 10.304688 12.292969 11.039062 C 12.292969 11.765625 11.761719 12.292969 11.035156 12.292969 Z M 11.023438 12.292969 "/>
</g>
</defs>
<g id="surface1">
<path style=" stroke:none;fill-rule:nonzero;fill:rgb(5.098039%,40%,76.078431%);fill-opacity:1;" d="M 15 30 C 6.714844 30 0 23.285156 0 15 C 0 6.714844 6.714844 0 15 0 C 23.285156 0 30 6.714844 30 15 C 30 23.285156 23.285156 30 15 30 Z M 15 30 "/>
<path style=" stroke:none;fill-rule:nonzero;fill:rgb(100%,100%,100%);fill-opacity:1;" d="M 22.5 20.417969 C 22.5 21.566406 21.566406 22.5 20.417969 22.5 L 9.582031 22.5 C 8.433594 22.5 7.5 21.566406 7.5 20.417969 L 7.5 9.582031 C 7.5 8.433594 8.433594 7.5 9.582031 7.5 L 20.417969 7.5 C 21.566406 7.5 22.5 8.433594 22.5 9.582031 Z M 22.5 20.417969 "/>
<use xlink:href="#surface5" mask="url(#mask0)"/>
<use xlink:href="#surface8" mask="url(#mask1)"/>
<path style=" stroke:none;fill-rule:nonzero;fill:rgb(5.098039%,40%,76.078431%);fill-opacity:1;" d="M 10 12.917969 L 12.082031 12.917969 L 12.082031 20 L 10 20 Z M 11.035156 12.082031 L 11.023438 12.082031 C 10.402344 12.082031 10 11.621094 10 11.042969 C 10 10.449219 10.414062 10 11.046875 10 C 11.679688 10 12.070312 10.449219 12.082031 11.042969 C 12.082031 11.621094 11.679688 12.082031 11.035156 12.082031 Z M 20 20 L 17.917969 20 L 17.917969 16.207031 C 17.917969 15.292969 17.40625 14.667969 16.585938 14.667969 C 15.960938 14.667969 15.621094 15.089844 15.457031 15.496094 C 15.398438 15.644531 15.417969 16.046875 15.417969 16.25 L 15.417969 20 L 13.332031 20 L 13.332031 12.917969 L 15.417969 12.917969 L 15.417969 14.007812 C 15.71875 13.542969 16.1875 12.917969 17.390625 12.917969 C 18.882812 12.917969 20 13.855469 20 15.949219 Z M 20 20 "/>
</g>
</svg>
